<svg xmlns="http://www.w3.org/2000/svg" width="40" height="40" viewBox="0 0 40 40">
    <g fill="none" fill-rule="nonzero">
        <path fill="#027C89" d="M20 0C8.955 0 0 8.955 0 20s8.955 20 20 20 20-8.955 20-20S31.045 0 20 0z"/>
        <path fill="#FFF" stroke="#FD0" stroke-width="2" d="M27.287 24.393h-8.269a.414.414 0 0 1-.413-.414V11.576a.414.414 0 0 1 .827 0v11.99h7.855a.414.414 0 0 1 0 .827z"/>
        <path fill="#FFF" stroke="#FD0" d="M31.718 8.332a.413.413 0 0 1-.585 0c-6.287-6.288-16.516-6.288-22.801 0-6.288 6.287-6.288 16.516 0 22.801a.413.413 0 1 1-.585.585c-6.608-6.608-6.608-17.363 0-23.971 6.608-6.608 17.363-6.608 23.971 0a.413.413 0 0 1 0 .585z"/>
    </g>
</svg>
