<svg xmlns="http://www.w3.org/2000/svg" width="25" height="40" viewBox="0 0 25 40">
    <g fill="none" fill-rule="nonzero">
        <path fill="#027C89" d="M.345.073v2.3a15.326 15.326 0 0 0 6.953 12.836 5.72 5.72 0 0 1 0 9.582A15.326 15.326 0 0 0 .345 37.627v2.3h24.528v-2.3a15.326 15.326 0 0 0-6.953-12.836 5.72 5.72 0 0 1 0-9.582 15.326 15.326 0 0 0 6.953-12.836v-2.3H.345z"/>
        <path fill="#FD0" d="M4.504 8.225h16.21a12.6 12.6 0 0 1-4.28 4.708A8.44 8.44 0 0 0 12.609 20a8.44 8.44 0 0 0-3.826-7.067 12.601 12.601 0 0 1-4.278-4.708zM7.55 37.211l5.059-5.06 5.06 5.06z"/>
    </g>
</svg>
