<svg xmlns="http://www.w3.org/2000/svg" width="38" height="40" viewBox="0 0 38 40">
    <g fill="none" fill-rule="nonzero">
        <path fill="#027C89" d="M18.8 0a7.745 7.745 0 0 1 7.76 7.76 7.745 7.745 0 0 1-7.76 7.762 7.745 7.745 0 0 1-7.76-7.761A7.745 7.745 0 0 1 18.8 0zM35.397 18.269c-5.613-.119-10.747.954-15.283 3.462v18.27c3.583-3.821 8.955-5.254 15.283-5.375v-2.15a3.812 3.812 0 0 1-2.866-1.314c-.717-.717-1.194-1.671-1.194-2.865v-2.985c0-1.193.479-2.15 1.194-2.865.717-.836 1.79-1.194 2.866-1.194v-2.984zM2.203 18.269c5.613-.119 10.747.954 15.283 3.462v18.27c-3.583-3.821-8.955-5.254-15.283-5.375v-2.15c1.075 0 2.15-.478 2.866-1.314.717-.717 1.194-1.671 1.194-2.865v-2.985c0-1.193-.479-2.15-1.194-2.865-.717-.836-1.79-1.194-2.866-1.194v-2.984z"/>
        <path fill="#FD0" d="M2.203 23.403c1.075 0 1.911.836 1.911 1.911v2.984c0 1.075-.836 1.911-1.91 1.911A1.886 1.886 0 0 1 .291 28.3v-2.985c0-1.075.836-1.91 1.911-1.91zM35.397 23.403c-1.075 0-1.911.836-1.911 1.911v2.984c0 1.075.836 1.911 1.91 1.911 1.076 0 1.912-.836 1.912-1.91v-2.985c0-1.075-.836-1.91-1.911-1.91zM25.725 17.194c-2.508.597-4.657 1.433-6.925 2.747-2.269-1.314-4.417-2.15-6.925-2.747 3.94-1.433 9.911-1.433 13.85 0z"/>
    </g>
</svg>
