<svg xmlns="http://www.w3.org/2000/svg" width="32" height="40" viewBox="0 0 32 40">
    <g fill="none" fill-rule="evenodd">
        <path fill="#027C89" fill-rule="nonzero" d="M16.665 39.779c2.944-1.248 5.669-3.026 8.06-5.145 2.41-2.134 4.539-4.74 5.812-7.717.686-1.6 1.133-3.24 1.286-4.977.076-.88.047-1.772.047-2.658V9.015c0-.842.03-1.696 0-2.538v-.029c0-.663-.447-1.172-1.048-1.376l-4.95-1.715c-2.6-.899-5.202-1.806-7.797-2.705-.575-.2-1.147-.423-1.734-.6-.613-.187-1.318.18-1.886.377l-7.47 2.587c-1.947.677-3.89 1.35-5.84 2.024-.034.01-.061.023-.095.034-.6.21-1.048.72-1.048 1.376v8.834c0 1.858-.004 3.716 0 5.574.004 1.62.286 3.249.82 4.779 1.095 3.14 3.082 5.907 5.464 8.208a30.07 30.07 0 0 0 7.95 5.507c.324.153.657.301.987.444.371.157.695.258 1.101.143.334-.091.69-.347.852-.657.175-.334.263-.734.143-1.102-.105-.327-.324-.714-.658-.851-2.187-.93-.223-.492-1.433.025-.304.13-.571.552-.657.851-.095.343-.053.797.143 1.102.194.305.491.571.852.657.4.048.724-.028 1.1-.185h-.001z"/>
        <path fill="#FD0" fill-rule="nonzero" d="M7.528 19.176l5.265 5.265a1.445 1.445 0 0 0 2.02 0l3.248-3.249 5.141-5.14 1.186-1.186c.53-.53.567-1.501 0-2.02-.572-.524-1.458-.567-2.02 0l-3.25 3.25-5.14 5.14-1.185 1.186h2.02l-5.265-5.265c-.53-.53-1.502-.568-2.02 0-.524.571-.562 1.455 0 2.02z"/>
    </g>
</svg>
