<svg xmlns="http://www.w3.org/2000/svg" width="29" height="45" viewBox="0 0 29 45">
    <g fill="none" fill-rule="nonzero">
        <path fill="#027C89" d="M18.234 11.862a3.943 3.943 0 1 1-7.885 0 3.943 3.943 0 0 1 7.885 0M24.833 20.341c-1.695.55-3.528.596-3.895.276-.138-.138-.321-.458-.505-.734-.688-1.055-1.787-2.888-4.355-2.888h-3.575c-2.567 0-3.667 1.787-4.354 2.888-.183.32-.367.596-.505.734-.367.32-2.2.276-3.85-.276-.916-.276-1.924.23-2.2 1.146-.275.917.23 1.925 1.146 2.2.505.138 2.11.641 3.805.641 1.375 0 2.75-.32 3.713-1.283.138-.138.276-.32.367-.459l-.183 4.401c-5.317 3.346-5.317 4.263-5.317 5.226 0 1.1 0 2.245 7.057 5.453.276.138.596.183.917.183.229 0 .412-.047.64-.091l-.137 4.765c-.047 1.193.917 2.2 2.154 2.245h.046c1.193 0 2.154-.963 2.2-2.153l.368-14.53v-.137l-.276-5.318c.091.138.23.276.32.412 2.11 2.245 6.6.963 7.472.688.916-.276 1.421-1.284 1.146-2.2-.274-.96-1.282-1.463-2.199-1.19v.001zM10.672 32.03c.916-.641 2.109-1.467 3.208-2.154l-.091 3.713a49.06 49.06 0 0 1-3.117-1.56z"/>
        <path fill="#FD0" stroke="#FD0" d="M15.758 2.695c0 1.956-2.933 1.956-2.933 0 0-1.955 2.933-1.955 2.933 0M8.38 5.766c.23 0 .505-.047.734-.183.688-.412.963-1.328.55-2.016a1.423 1.423 0 0 0-.917-.687 1.517 1.517 0 0 0-1.1.138c-.32.182-.595.504-.687.916-.091.367-.046.779.138 1.1.272.458.777.732 1.282.732zM3.338 9.89c.23.139.505.183.734.183a1.52 1.52 0 0 0 1.284-.734 1.458 1.458 0 0 0-.55-2.016 1.527 1.527 0 0 0-1.099-.137c-.367.09-.687.367-.916.687a1.454 1.454 0 0 0 .547 2.018zM3.932 14.52c0 1.956-2.932 1.956-2.932 0 0-1.954 2.932-1.954 2.932 0M27.583 14.52c0 1.956-2.932 1.956-2.932 0 0-1.954 2.932-1.954 2.932 0M24.513 10.075c.276 0 .505-.046.734-.182.687-.412.963-1.329.55-2.016a1.423 1.423 0 0 0-.917-.688 1.517 1.517 0 0 0-1.1.138c-.32.183-.596.505-.687.917-.091.412-.046.779.138 1.099.227.365.548.594.915.686.184.03.306.046.367.046zM19.471 5.583c.23.138.505.183.734.183a1.52 1.52 0 0 0 1.284-.734 1.458 1.458 0 0 0-.55-2.016 1.527 1.527 0 0 0-1.099-.138c-.367.091-.687.367-.917.688-.415.689-.14 1.606.548 2.017z"/>
    </g>
</svg>
