<svg xmlns="http://www.w3.org/2000/svg" xmlns:xlink="http://www.w3.org/1999/xlink" width="25" height="20" viewBox="0 0 25 20"><defs><path id="nlpla" d="M1160 771.366c-.92.402-1.907.674-2.945.796a5.086 5.086 0 0 0 2.254-2.793c-.993.579-2.09.999-3.258 1.227a5.15 5.15 0 0 0-3.743-1.596c-2.833 0-5.13 2.262-5.13 5.05 0 .395.046.781.134 1.15a14.635 14.635 0 0 1-10.57-5.277 4.955 4.955 0 0 0-.694 2.539c0 1.752.906 3.299 2.281 4.203a5.189 5.189 0 0 1-2.323-.634v.063c0 2.447 1.768 4.488 4.113 4.953a5.27 5.27 0 0 1-1.351.177c-.331 0-.651-.032-.965-.094.653 2.008 2.546 3.468 4.79 3.508a10.39 10.39 0 0 1-6.37 2.159c-.414 0-.822-.025-1.223-.07a14.659 14.659 0 0 0 7.861 2.273c9.434 0 14.591-7.696 14.591-14.37l-.017-.654a10.158 10.158 0 0 0 2.565-2.61z"/></defs><g><g transform="translate(-1135 -769)"><use fill="#3e3d34" xlink:href="#nlpla"/></g></g></svg>